<svg id="Layer_1" data-name="Layer 1" xmlns="http://www.w3.org/2000/svg" viewBox="0 0 240.53 231.3"><defs><style>.cls-1{fill:#231f20;}</style></defs><path class="cls-1" d="M0,209.59l6.67,18.33a5.13,5.13,0,0,0,4.89,3.38l191.94-2.56a20.8,20.8,0,0,0,17.64-10.25l19.39-33"/><path class="cls-1" d="M221.49,171.48c4.28-10.93,9.39-28.8,6.2-49.71C223,91,203,71.68,178.93,48.38,149.41,19.84,113.21-2.87,110.52.29c-.51.61.27,2.05.56,2.6,7.79,14.56,25.42,68.83,25.75,95,.37,29.4-29,83.47-29,83.47"/><path class="cls-1" d="M30.22,188.54,97.39,34.25a1,1,0,0,1,2,.46l-6.82,147a1,1,0,0,1-.91,1L31.3,190A1,1,0,0,1,30.22,188.54Z"/></svg>